M48
; DRILL file {KiCad 8.0.5} date 2025-10-14T02:48:24+0200
; FORMAT={-:-/ absolute / metric / decimal}
; #@! TF.CreationDate,2025-10-14T02:48:24+02:00
; #@! TF.GenerationSoftware,Kicad,Pcbnew,8.0.5
; #@! TF.FileFunction,Plated,1,4,PTH
FMAT,2
METRIC
; #@! TA.AperFunction,Plated,PTH,ViaDrill
T1C0.300
; #@! TA.AperFunction,Plated,PTH,ComponentDrill
T2C1.000
%
G90
G05
T1
X172.2Y-113.1
X172.2Y-116.0
X172.8Y-84.9
X172.8Y-91.7
X172.8Y-98.2
X172.8Y-105.1
X181.1Y-118.7
X183.5Y-98.8
X186.475Y-92.7
X186.475Y-93.4
X186.475Y-96.6
X186.475Y-97.3
X189.0Y-118.7
X192.0Y-94.245
X192.0Y-95.8
X192.8Y-94.25
X192.8Y-95.8
X197.9Y-116.1
X198.0Y-113.1
X199.19Y-94.99
X199.4Y-88.7
X202.1Y-94.4
X202.1Y-100.9
X203.2Y-90.0
T2
X165.0Y-87.033
X165.0Y-89.573
X165.0Y-100.427
X165.0Y-102.967
X171.025Y-75.0
X173.565Y-75.0
X178.55Y-75.0
X181.09Y-75.0
X183.63Y-75.0
X186.17Y-75.0
X188.71Y-75.0
X191.25Y-75.0
X205.0Y-88.65
X205.0Y-91.19
X205.0Y-93.73
X205.0Y-96.27
X205.0Y-98.81
X205.0Y-101.35
M30
