G04 #@! TF.GenerationSoftware,KiCad,Pcbnew,8.0.5*
G04 #@! TF.CreationDate,2025-10-14T02:48:06+02:00*
G04 #@! TF.ProjectId,DRV8847S_Brreakout_Board,44525638-3834-4375-935f-42727265616b,rev?*
G04 #@! TF.SameCoordinates,Original*
G04 #@! TF.FileFunction,Soldermask,Top*
G04 #@! TF.FilePolarity,Negative*
%FSLAX46Y46*%
G04 Gerber Fmt 4.6, Leading zero omitted, Abs format (unit mm)*
G04 Created by KiCad (PCBNEW 8.0.5) date 2025-10-14 02:48:06*
%MOMM*%
%LPD*%
G01*
G04 APERTURE LIST*
G04 Aperture macros list*
%AMRoundRect*
0 Rectangle with rounded corners*
0 $1 Rounding radius*
0 $2 $3 $4 $5 $6 $7 $8 $9 X,Y pos of 4 corners*
0 Add a 4 corners polygon primitive as box body*
4,1,4,$2,$3,$4,$5,$6,$7,$8,$9,$2,$3,0*
0 Add four circle primitives for the rounded corners*
1,1,$1+$1,$2,$3*
1,1,$1+$1,$4,$5*
1,1,$1+$1,$6,$7*
1,1,$1+$1,$8,$9*
0 Add four rect primitives between the rounded corners*
20,1,$1+$1,$2,$3,$4,$5,0*
20,1,$1+$1,$4,$5,$6,$7,0*
20,1,$1+$1,$6,$7,$8,$9,0*
20,1,$1+$1,$8,$9,$2,$3,0*%
%AMFreePoly0*
4,1,19,0.500000,-0.750000,0.000000,-0.750000,0.000000,-0.744911,-0.071157,-0.744911,-0.207708,-0.704816,-0.327430,-0.627875,-0.420627,-0.520320,-0.479746,-0.390866,-0.500000,-0.250000,-0.500000,0.250000,-0.479746,0.390866,-0.420627,0.520320,-0.327430,0.627875,-0.207708,0.704816,-0.071157,0.744911,0.000000,0.744911,0.000000,0.750000,0.500000,0.750000,0.500000,-0.750000,0.500000,-0.750000,
$1*%
%AMFreePoly1*
4,1,19,0.000000,0.744911,0.071157,0.744911,0.207708,0.704816,0.327430,0.627875,0.420627,0.520320,0.479746,0.390866,0.500000,0.250000,0.500000,-0.250000,0.479746,-0.390866,0.420627,-0.520320,0.327430,-0.627875,0.207708,-0.704816,0.071157,-0.744911,0.000000,-0.744911,0.000000,-0.750000,-0.500000,-0.750000,-0.500000,0.750000,0.000000,0.750000,0.000000,0.744911,0.000000,0.744911,
$1*%
%AMFreePoly2*
4,1,6,1.000000,0.000000,0.500000,-0.750000,-0.500000,-0.750000,-0.500000,0.750000,0.500000,0.750000,1.000000,0.000000,1.000000,0.000000,$1*%
%AMFreePoly3*
4,1,6,0.500000,-0.750000,-0.650000,-0.750000,-0.150000,0.000000,-0.650000,0.750000,0.500000,0.750000,0.500000,-0.750000,0.500000,-0.750000,$1*%
G04 Aperture macros list end*
%ADD10RoundRect,0.225000X0.250000X-0.225000X0.250000X0.225000X-0.250000X0.225000X-0.250000X-0.225000X0*%
%ADD11RoundRect,0.200000X-0.275000X0.200000X-0.275000X-0.200000X0.275000X-0.200000X0.275000X0.200000X0*%
%ADD12C,3.200000*%
%ADD13FreePoly0,270.000000*%
%ADD14FreePoly1,270.000000*%
%ADD15FreePoly2,0.000000*%
%ADD16FreePoly3,0.000000*%
%ADD17RoundRect,0.200000X0.275000X-0.200000X0.275000X0.200000X-0.275000X0.200000X-0.275000X-0.200000X0*%
%ADD18R,1.700000X1.700000*%
%ADD19O,1.700000X1.700000*%
%ADD20RoundRect,0.135000X-0.185000X0.135000X-0.185000X-0.135000X0.185000X-0.135000X0.185000X0.135000X0*%
%ADD21RoundRect,0.140000X0.170000X-0.140000X0.170000X0.140000X-0.170000X0.140000X-0.170000X-0.140000X0*%
%ADD22RoundRect,0.135000X-0.135000X-0.185000X0.135000X-0.185000X0.135000X0.185000X-0.135000X0.185000X0*%
%ADD23FreePoly2,180.000000*%
%ADD24FreePoly3,180.000000*%
%ADD25RoundRect,0.135000X0.185000X-0.135000X0.185000X0.135000X-0.185000X0.135000X-0.185000X-0.135000X0*%
%ADD26RoundRect,0.100000X-0.637500X-0.100000X0.637500X-0.100000X0.637500X0.100000X-0.637500X0.100000X0*%
%ADD27RoundRect,0.135000X0.135000X0.185000X-0.135000X0.185000X-0.135000X-0.185000X0.135000X-0.185000X0*%
G04 APERTURE END LIST*
D10*
X190950000Y-95795000D03*
X190950000Y-94245000D03*
D11*
X171100000Y-87483333D03*
X171100000Y-89133333D03*
D12*
X205000000Y-75000000D03*
D11*
X172800000Y-89200000D03*
X172800000Y-90850000D03*
D13*
X181093333Y-115875000D03*
D14*
X181093333Y-117175000D03*
D15*
X176550000Y-116000000D03*
D16*
X178000000Y-116000000D03*
D17*
X170800000Y-102466666D03*
X170800000Y-100816666D03*
D18*
X165000000Y-102966666D03*
D19*
X165000000Y-100426666D03*
D20*
X199200000Y-91190000D03*
X199200000Y-92210000D03*
D18*
X171025000Y-75000000D03*
D19*
X173565000Y-75000000D03*
D15*
X176543333Y-113075000D03*
D16*
X177993333Y-113075000D03*
D21*
X189550000Y-95500000D03*
X189550000Y-94540000D03*
D18*
X165000000Y-87033333D03*
D19*
X165000000Y-89573333D03*
D20*
X202100000Y-95280000D03*
X202100000Y-96300000D03*
D22*
X195900000Y-113100000D03*
X196920000Y-113100000D03*
D23*
X193525000Y-113100000D03*
D24*
X192075000Y-113100000D03*
D25*
X202100000Y-99820000D03*
X202100000Y-98800000D03*
D20*
X189000000Y-112980000D03*
X189000000Y-114000000D03*
D12*
X165000000Y-75000000D03*
D11*
X172800000Y-99150000D03*
X172800000Y-100800000D03*
D12*
X205000000Y-115000000D03*
X165000000Y-115000000D03*
D23*
X193525000Y-116100000D03*
D24*
X192075000Y-116100000D03*
D22*
X195900000Y-116100000D03*
X196920000Y-116100000D03*
D25*
X202100000Y-89720000D03*
X202100000Y-88700000D03*
D26*
X182137500Y-92725000D03*
X182137500Y-93375000D03*
X182137500Y-94025000D03*
X182137500Y-94675000D03*
X182137500Y-95325000D03*
X182137500Y-95975000D03*
X182137500Y-96625000D03*
X182137500Y-97275000D03*
X187862500Y-97275000D03*
X187862500Y-96625000D03*
X187862500Y-95975000D03*
X187862500Y-95325000D03*
X187862500Y-94675000D03*
X187862500Y-94025000D03*
X187862500Y-93375000D03*
X187862500Y-92725000D03*
D17*
X172800000Y-87500000D03*
X172800000Y-85850000D03*
X172800000Y-104150000D03*
X172800000Y-102500000D03*
D18*
X205000000Y-88650000D03*
D19*
X205000000Y-91190000D03*
X205000000Y-93730000D03*
X205000000Y-96270000D03*
X205000000Y-98810000D03*
X205000000Y-101350000D03*
D27*
X174220000Y-116000000D03*
X173200000Y-116000000D03*
D20*
X199200000Y-93180000D03*
X199200000Y-94200000D03*
X181093333Y-113055000D03*
X181093333Y-114075000D03*
D18*
X178550000Y-75000000D03*
D19*
X181090000Y-75000000D03*
X183630000Y-75000000D03*
X186170000Y-75000000D03*
X188710000Y-75000000D03*
X191250000Y-75000000D03*
D13*
X189000000Y-115900000D03*
D14*
X189000000Y-117200000D03*
D27*
X174303333Y-113075000D03*
X173283333Y-113075000D03*
M02*
