G04 #@! TF.GenerationSoftware,KiCad,Pcbnew,8.0.5*
G04 #@! TF.CreationDate,2025-10-14T02:48:06+02:00*
G04 #@! TF.ProjectId,DRV8847S_Brreakout_Board,44525638-3834-4375-935f-42727265616b,rev?*
G04 #@! TF.SameCoordinates,Original*
G04 #@! TF.FileFunction,Copper,L4,Bot*
G04 #@! TF.FilePolarity,Positive*
%FSLAX46Y46*%
G04 Gerber Fmt 4.6, Leading zero omitted, Abs format (unit mm)*
G04 Created by KiCad (PCBNEW 8.0.5) date 2025-10-14 02:48:06*
%MOMM*%
%LPD*%
G01*
G04 APERTURE LIST*
G04 #@! TA.AperFunction,ComponentPad*
%ADD10R,1.700000X1.700000*%
G04 #@! TD*
G04 #@! TA.AperFunction,ComponentPad*
%ADD11O,1.700000X1.700000*%
G04 #@! TD*
G04 #@! TA.AperFunction,ViaPad*
%ADD12C,0.700000*%
G04 #@! TD*
G04 #@! TA.AperFunction,ViaPad*
%ADD13C,0.500000*%
G04 #@! TD*
G04 #@! TA.AperFunction,Conductor*
%ADD14C,0.153000*%
G04 #@! TD*
G04 APERTURE END LIST*
D10*
X165000000Y-102966666D03*
D11*
X165000000Y-100426666D03*
D10*
X171025000Y-75000000D03*
D11*
X173565000Y-75000000D03*
D10*
X165000000Y-87033333D03*
D11*
X165000000Y-89573333D03*
D10*
X205000000Y-88650000D03*
D11*
X205000000Y-91190000D03*
X205000000Y-93730000D03*
X205000000Y-96270000D03*
X205000000Y-98810000D03*
X205000000Y-101350000D03*
D10*
X178550000Y-75000000D03*
D11*
X181090000Y-75000000D03*
X183630000Y-75000000D03*
X186170000Y-75000000D03*
X188710000Y-75000000D03*
X191250000Y-75000000D03*
D12*
X192800000Y-95800000D03*
X192000000Y-95800000D03*
X192800000Y-94250000D03*
X192000000Y-94245000D03*
X197900000Y-116100000D03*
X172200000Y-116000000D03*
X189000000Y-118700000D03*
X199190000Y-94990000D03*
X198000000Y-113100000D03*
X181100000Y-118700000D03*
X172800000Y-91700000D03*
X172800000Y-98200000D03*
X172200000Y-113100000D03*
X172800000Y-105100000D03*
X172800000Y-84900000D03*
X199400000Y-88700000D03*
D13*
X183500000Y-98800000D03*
D12*
X202100000Y-94400000D03*
X203200000Y-90000000D03*
X202100000Y-100900000D03*
D13*
X186475000Y-97300000D03*
X186475000Y-93400000D03*
X186475000Y-92700000D03*
X186475000Y-96600000D03*
D14*
X193100000Y-98800000D02*
X195500000Y-96400000D01*
X195500000Y-91200000D02*
X198000000Y-88700000D01*
X198000000Y-88700000D02*
X199400000Y-88700000D01*
X183500000Y-98800000D02*
X193100000Y-98800000D01*
X195500000Y-96400000D02*
X195500000Y-91200000D01*
X179800000Y-97300000D02*
X186300000Y-97300000D01*
X178650000Y-96150000D02*
X179800000Y-97300000D01*
X178650000Y-75000000D02*
X178650000Y-96150000D01*
X184200000Y-93400000D02*
X186475000Y-93400000D01*
X183730000Y-75000000D02*
X183730000Y-92930000D01*
X183730000Y-92930000D02*
X184200000Y-93400000D01*
X186100000Y-92300000D02*
X186475000Y-92675000D01*
X186475000Y-92675000D02*
X186475000Y-92700000D01*
X186100000Y-92300000D02*
X186100000Y-75170000D01*
X181190000Y-94390000D02*
X182150000Y-95350000D01*
X182150000Y-95350000D02*
X185050000Y-95350000D01*
X186300000Y-96600000D02*
X186475000Y-96600000D01*
X181190000Y-75000000D02*
X181190000Y-94390000D01*
X185050000Y-95350000D02*
X186300000Y-96600000D01*
M02*
