G04 #@! TF.GenerationSoftware,KiCad,Pcbnew,8.0.5*
G04 #@! TF.CreationDate,2025-10-14T02:48:06+02:00*
G04 #@! TF.ProjectId,DRV8847S_Brreakout_Board,44525638-3834-4375-935f-42727265616b,rev?*
G04 #@! TF.SameCoordinates,Original*
G04 #@! TF.FileFunction,Paste,Top*
G04 #@! TF.FilePolarity,Positive*
%FSLAX46Y46*%
G04 Gerber Fmt 4.6, Leading zero omitted, Abs format (unit mm)*
G04 Created by KiCad (PCBNEW 8.0.5) date 2025-10-14 02:48:06*
%MOMM*%
%LPD*%
G01*
G04 APERTURE LIST*
G04 Aperture macros list*
%AMRoundRect*
0 Rectangle with rounded corners*
0 $1 Rounding radius*
0 $2 $3 $4 $5 $6 $7 $8 $9 X,Y pos of 4 corners*
0 Add a 4 corners polygon primitive as box body*
4,1,4,$2,$3,$4,$5,$6,$7,$8,$9,$2,$3,0*
0 Add four circle primitives for the rounded corners*
1,1,$1+$1,$2,$3*
1,1,$1+$1,$4,$5*
1,1,$1+$1,$6,$7*
1,1,$1+$1,$8,$9*
0 Add four rect primitives between the rounded corners*
20,1,$1+$1,$2,$3,$4,$5,0*
20,1,$1+$1,$4,$5,$6,$7,0*
20,1,$1+$1,$6,$7,$8,$9,0*
20,1,$1+$1,$8,$9,$2,$3,0*%
G04 Aperture macros list end*
%ADD10RoundRect,0.225000X0.250000X-0.225000X0.250000X0.225000X-0.250000X0.225000X-0.250000X-0.225000X0*%
%ADD11RoundRect,0.200000X-0.275000X0.200000X-0.275000X-0.200000X0.275000X-0.200000X0.275000X0.200000X0*%
%ADD12RoundRect,0.200000X0.275000X-0.200000X0.275000X0.200000X-0.275000X0.200000X-0.275000X-0.200000X0*%
%ADD13RoundRect,0.135000X-0.185000X0.135000X-0.185000X-0.135000X0.185000X-0.135000X0.185000X0.135000X0*%
%ADD14RoundRect,0.140000X0.170000X-0.140000X0.170000X0.140000X-0.170000X0.140000X-0.170000X-0.140000X0*%
%ADD15RoundRect,0.135000X-0.135000X-0.185000X0.135000X-0.185000X0.135000X0.185000X-0.135000X0.185000X0*%
%ADD16RoundRect,0.135000X0.185000X-0.135000X0.185000X0.135000X-0.185000X0.135000X-0.185000X-0.135000X0*%
%ADD17RoundRect,0.100000X-0.637500X-0.100000X0.637500X-0.100000X0.637500X0.100000X-0.637500X0.100000X0*%
%ADD18RoundRect,0.135000X0.135000X0.185000X-0.135000X0.185000X-0.135000X-0.185000X0.135000X-0.185000X0*%
G04 APERTURE END LIST*
D10*
X190950000Y-95795000D03*
X190950000Y-94245000D03*
D11*
X171100000Y-87483333D03*
X171100000Y-89133333D03*
X172800000Y-89200000D03*
X172800000Y-90850000D03*
D12*
X170800000Y-102466666D03*
X170800000Y-100816666D03*
D13*
X199200000Y-91190000D03*
X199200000Y-92210000D03*
D14*
X189550000Y-95500000D03*
X189550000Y-94540000D03*
D13*
X202100000Y-95280000D03*
X202100000Y-96300000D03*
D15*
X195900000Y-113100000D03*
X196920000Y-113100000D03*
D16*
X202100000Y-99820000D03*
X202100000Y-98800000D03*
D13*
X189000000Y-112980000D03*
X189000000Y-114000000D03*
D11*
X172800000Y-99150000D03*
X172800000Y-100800000D03*
D15*
X195900000Y-116100000D03*
X196920000Y-116100000D03*
D16*
X202100000Y-89720000D03*
X202100000Y-88700000D03*
D17*
X182137500Y-92725000D03*
X182137500Y-93375000D03*
X182137500Y-94025000D03*
X182137500Y-94675000D03*
X182137500Y-95325000D03*
X182137500Y-95975000D03*
X182137500Y-96625000D03*
X182137500Y-97275000D03*
X187862500Y-97275000D03*
X187862500Y-96625000D03*
X187862500Y-95975000D03*
X187862500Y-95325000D03*
X187862500Y-94675000D03*
X187862500Y-94025000D03*
X187862500Y-93375000D03*
X187862500Y-92725000D03*
D12*
X172800000Y-87500000D03*
X172800000Y-85850000D03*
X172800000Y-104150000D03*
X172800000Y-102500000D03*
D18*
X174220000Y-116000000D03*
X173200000Y-116000000D03*
D13*
X199200000Y-93180000D03*
X199200000Y-94200000D03*
X181093333Y-113055000D03*
X181093333Y-114075000D03*
D18*
X174303333Y-113075000D03*
X173283333Y-113075000D03*
M02*
