G04 #@! TF.GenerationSoftware,KiCad,Pcbnew,8.0.5*
G04 #@! TF.CreationDate,2025-10-14T02:48:06+02:00*
G04 #@! TF.ProjectId,DRV8847S_Brreakout_Board,44525638-3834-4375-935f-42727265616b,rev?*
G04 #@! TF.SameCoordinates,Original*
G04 #@! TF.FileFunction,Copper,L1,Top*
G04 #@! TF.FilePolarity,Positive*
%FSLAX46Y46*%
G04 Gerber Fmt 4.6, Leading zero omitted, Abs format (unit mm)*
G04 Created by KiCad (PCBNEW 8.0.5) date 2025-10-14 02:48:06*
%MOMM*%
%LPD*%
G01*
G04 APERTURE LIST*
G04 Aperture macros list*
%AMRoundRect*
0 Rectangle with rounded corners*
0 $1 Rounding radius*
0 $2 $3 $4 $5 $6 $7 $8 $9 X,Y pos of 4 corners*
0 Add a 4 corners polygon primitive as box body*
4,1,4,$2,$3,$4,$5,$6,$7,$8,$9,$2,$3,0*
0 Add four circle primitives for the rounded corners*
1,1,$1+$1,$2,$3*
1,1,$1+$1,$4,$5*
1,1,$1+$1,$6,$7*
1,1,$1+$1,$8,$9*
0 Add four rect primitives between the rounded corners*
20,1,$1+$1,$2,$3,$4,$5,0*
20,1,$1+$1,$4,$5,$6,$7,0*
20,1,$1+$1,$6,$7,$8,$9,0*
20,1,$1+$1,$8,$9,$2,$3,0*%
%AMFreePoly0*
4,1,19,0.500000,-0.750000,0.000000,-0.750000,0.000000,-0.744911,-0.071157,-0.744911,-0.207708,-0.704816,-0.327430,-0.627875,-0.420627,-0.520320,-0.479746,-0.390866,-0.500000,-0.250000,-0.500000,0.250000,-0.479746,0.390866,-0.420627,0.520320,-0.327430,0.627875,-0.207708,0.704816,-0.071157,0.744911,0.000000,0.744911,0.000000,0.750000,0.500000,0.750000,0.500000,-0.750000,0.500000,-0.750000,
$1*%
%AMFreePoly1*
4,1,19,0.000000,0.744911,0.071157,0.744911,0.207708,0.704816,0.327430,0.627875,0.420627,0.520320,0.479746,0.390866,0.500000,0.250000,0.500000,-0.250000,0.479746,-0.390866,0.420627,-0.520320,0.327430,-0.627875,0.207708,-0.704816,0.071157,-0.744911,0.000000,-0.744911,0.000000,-0.750000,-0.500000,-0.750000,-0.500000,0.750000,0.000000,0.750000,0.000000,0.744911,0.000000,0.744911,
$1*%
%AMFreePoly2*
4,1,6,1.000000,0.000000,0.500000,-0.750000,-0.500000,-0.750000,-0.500000,0.750000,0.500000,0.750000,1.000000,0.000000,1.000000,0.000000,$1*%
%AMFreePoly3*
4,1,6,0.500000,-0.750000,-0.650000,-0.750000,-0.150000,0.000000,-0.650000,0.750000,0.500000,0.750000,0.500000,-0.750000,0.500000,-0.750000,$1*%
G04 Aperture macros list end*
G04 #@! TA.AperFunction,EtchedComponent*
%ADD10C,0.000000*%
G04 #@! TD*
G04 #@! TA.AperFunction,SMDPad,CuDef*
%ADD11RoundRect,0.225000X0.250000X-0.225000X0.250000X0.225000X-0.250000X0.225000X-0.250000X-0.225000X0*%
G04 #@! TD*
G04 #@! TA.AperFunction,SMDPad,CuDef*
%ADD12RoundRect,0.200000X-0.275000X0.200000X-0.275000X-0.200000X0.275000X-0.200000X0.275000X0.200000X0*%
G04 #@! TD*
G04 #@! TA.AperFunction,SMDPad,CuDef*
%ADD13FreePoly0,270.000000*%
G04 #@! TD*
G04 #@! TA.AperFunction,SMDPad,CuDef*
%ADD14FreePoly1,270.000000*%
G04 #@! TD*
G04 #@! TA.AperFunction,SMDPad,CuDef*
%ADD15FreePoly2,0.000000*%
G04 #@! TD*
G04 #@! TA.AperFunction,SMDPad,CuDef*
%ADD16FreePoly3,0.000000*%
G04 #@! TD*
G04 #@! TA.AperFunction,SMDPad,CuDef*
%ADD17RoundRect,0.200000X0.275000X-0.200000X0.275000X0.200000X-0.275000X0.200000X-0.275000X-0.200000X0*%
G04 #@! TD*
G04 #@! TA.AperFunction,ComponentPad*
%ADD18R,1.700000X1.700000*%
G04 #@! TD*
G04 #@! TA.AperFunction,ComponentPad*
%ADD19O,1.700000X1.700000*%
G04 #@! TD*
G04 #@! TA.AperFunction,SMDPad,CuDef*
%ADD20RoundRect,0.135000X-0.185000X0.135000X-0.185000X-0.135000X0.185000X-0.135000X0.185000X0.135000X0*%
G04 #@! TD*
G04 #@! TA.AperFunction,SMDPad,CuDef*
%ADD21RoundRect,0.140000X0.170000X-0.140000X0.170000X0.140000X-0.170000X0.140000X-0.170000X-0.140000X0*%
G04 #@! TD*
G04 #@! TA.AperFunction,SMDPad,CuDef*
%ADD22RoundRect,0.135000X-0.135000X-0.185000X0.135000X-0.185000X0.135000X0.185000X-0.135000X0.185000X0*%
G04 #@! TD*
G04 #@! TA.AperFunction,SMDPad,CuDef*
%ADD23FreePoly2,180.000000*%
G04 #@! TD*
G04 #@! TA.AperFunction,SMDPad,CuDef*
%ADD24FreePoly3,180.000000*%
G04 #@! TD*
G04 #@! TA.AperFunction,SMDPad,CuDef*
%ADD25RoundRect,0.135000X0.185000X-0.135000X0.185000X0.135000X-0.185000X0.135000X-0.185000X-0.135000X0*%
G04 #@! TD*
G04 #@! TA.AperFunction,SMDPad,CuDef*
%ADD26RoundRect,0.100000X-0.637500X-0.100000X0.637500X-0.100000X0.637500X0.100000X-0.637500X0.100000X0*%
G04 #@! TD*
G04 #@! TA.AperFunction,SMDPad,CuDef*
%ADD27RoundRect,0.135000X0.135000X0.185000X-0.135000X0.185000X-0.135000X-0.185000X0.135000X-0.185000X0*%
G04 #@! TD*
G04 #@! TA.AperFunction,ViaPad*
%ADD28C,0.700000*%
G04 #@! TD*
G04 #@! TA.AperFunction,ViaPad*
%ADD29C,0.500000*%
G04 #@! TD*
G04 #@! TA.AperFunction,Conductor*
%ADD30C,0.300000*%
G04 #@! TD*
G04 #@! TA.AperFunction,Conductor*
%ADD31C,0.153000*%
G04 #@! TD*
G04 #@! TA.AperFunction,Conductor*
%ADD32C,0.500000*%
G04 #@! TD*
G04 APERTURE END LIST*
D10*
G04 #@! TA.AperFunction,EtchedComponent*
G36*
X181393333Y-116775000D02*
G01*
X180793333Y-116775000D01*
X180793333Y-116275000D01*
X181393333Y-116275000D01*
X181393333Y-116775000D01*
G37*
G04 #@! TD.AperFunction*
G04 #@! TA.AperFunction,EtchedComponent*
G36*
X189300000Y-116800000D02*
G01*
X188700000Y-116800000D01*
X188700000Y-116300000D01*
X189300000Y-116300000D01*
X189300000Y-116800000D01*
G37*
G04 #@! TD.AperFunction*
D11*
X190950000Y-95795000D03*
X190950000Y-94245000D03*
D12*
X171100000Y-87483333D03*
X171100000Y-89133333D03*
X172800000Y-89200000D03*
X172800000Y-90850000D03*
D13*
X181093333Y-115875000D03*
D14*
X181093333Y-117175000D03*
D15*
X176550000Y-116000000D03*
D16*
X178000000Y-116000000D03*
D17*
X170800000Y-102466666D03*
X170800000Y-100816666D03*
D18*
X165000000Y-102966666D03*
D19*
X165000000Y-100426666D03*
D20*
X199200000Y-91190000D03*
X199200000Y-92210000D03*
D18*
X171025000Y-75000000D03*
D19*
X173565000Y-75000000D03*
D15*
X176543333Y-113075000D03*
D16*
X177993333Y-113075000D03*
D21*
X189550000Y-95500000D03*
X189550000Y-94540000D03*
D18*
X165000000Y-87033333D03*
D19*
X165000000Y-89573333D03*
D20*
X202100000Y-95280000D03*
X202100000Y-96300000D03*
D22*
X195900000Y-113100000D03*
X196920000Y-113100000D03*
D23*
X193525000Y-113100000D03*
D24*
X192075000Y-113100000D03*
D25*
X202100000Y-99820000D03*
X202100000Y-98800000D03*
D20*
X189000000Y-112980000D03*
X189000000Y-114000000D03*
D12*
X172800000Y-99150000D03*
X172800000Y-100800000D03*
D23*
X193525000Y-116100000D03*
D24*
X192075000Y-116100000D03*
D22*
X195900000Y-116100000D03*
X196920000Y-116100000D03*
D25*
X202100000Y-89720000D03*
X202100000Y-88700000D03*
D26*
X182137500Y-92725000D03*
X182137500Y-93375000D03*
X182137500Y-94025000D03*
X182137500Y-94675000D03*
X182137500Y-95325000D03*
X182137500Y-95975000D03*
X182137500Y-96625000D03*
X182137500Y-97275000D03*
X187862500Y-97275000D03*
X187862500Y-96625000D03*
X187862500Y-95975000D03*
X187862500Y-95325000D03*
X187862500Y-94675000D03*
X187862500Y-94025000D03*
X187862500Y-93375000D03*
X187862500Y-92725000D03*
D17*
X172800000Y-87500000D03*
X172800000Y-85850000D03*
X172800000Y-104150000D03*
X172800000Y-102500000D03*
D18*
X205000000Y-88650000D03*
D19*
X205000000Y-91190000D03*
X205000000Y-93730000D03*
X205000000Y-96270000D03*
X205000000Y-98810000D03*
X205000000Y-101350000D03*
D27*
X174220000Y-116000000D03*
X173200000Y-116000000D03*
D20*
X199200000Y-93180000D03*
X199200000Y-94200000D03*
X181093333Y-113055000D03*
X181093333Y-114075000D03*
D18*
X178550000Y-75000000D03*
D19*
X181090000Y-75000000D03*
X183630000Y-75000000D03*
X186170000Y-75000000D03*
X188710000Y-75000000D03*
X191250000Y-75000000D03*
D13*
X189000000Y-115900000D03*
D14*
X189000000Y-117200000D03*
D27*
X174303333Y-113075000D03*
X173283333Y-113075000D03*
D28*
X192800000Y-95800000D03*
X192000000Y-95800000D03*
X192800000Y-94250000D03*
X192000000Y-94245000D03*
X197900000Y-116100000D03*
X172200000Y-116000000D03*
X189000000Y-118700000D03*
X199190000Y-94990000D03*
X198000000Y-113100000D03*
X181100000Y-118700000D03*
X172800000Y-91700000D03*
X172800000Y-98200000D03*
X172200000Y-113100000D03*
X172800000Y-105100000D03*
X172800000Y-84900000D03*
X199400000Y-88700000D03*
D29*
X183500000Y-98800000D03*
D28*
X202100000Y-94400000D03*
X203200000Y-90000000D03*
X202100000Y-100900000D03*
D29*
X186475000Y-97300000D03*
X186475000Y-93400000D03*
X186475000Y-92700000D03*
X186475000Y-96600000D03*
D30*
X189375000Y-95325000D02*
X189550000Y-95500000D01*
X187862500Y-95325000D02*
X189375000Y-95325000D01*
X187862500Y-94675000D02*
X189415000Y-94675000D01*
X189415000Y-94675000D02*
X189550000Y-94540000D01*
X192000000Y-95800000D02*
X192800000Y-95800000D01*
X191995000Y-95795000D02*
X192000000Y-95800000D01*
X190950000Y-95795000D02*
X191995000Y-95795000D01*
X192795000Y-94245000D02*
X192800000Y-94250000D01*
X192000000Y-94245000D02*
X192795000Y-94245000D01*
X192000000Y-94245000D02*
X190950000Y-94245000D01*
X189500000Y-94540000D02*
X190655000Y-94540000D01*
X190655000Y-94540000D02*
X190950000Y-94245000D01*
X190655000Y-95500000D02*
X190950000Y-95795000D01*
X189500000Y-95500000D02*
X190655000Y-95500000D01*
D31*
X189550000Y-96750000D02*
X193750000Y-96750000D01*
X193750000Y-96750000D02*
X195800000Y-98800000D01*
X188775000Y-95975000D02*
X189550000Y-96750000D01*
X187862500Y-95975000D02*
X188775000Y-95975000D01*
X195800000Y-98800000D02*
X202100000Y-98800000D01*
X196400000Y-96300000D02*
X202100000Y-96300000D01*
X193350000Y-93250000D02*
X196400000Y-96300000D01*
X189550000Y-93250000D02*
X193350000Y-93250000D01*
X187862500Y-94025000D02*
X188775000Y-94025000D01*
X188775000Y-94025000D02*
X189550000Y-93250000D01*
D30*
X173200000Y-116000000D02*
X172200000Y-116000000D01*
X181093333Y-118693333D02*
X181100000Y-118700000D01*
X196920000Y-116100000D02*
X197900000Y-116100000D01*
X199190000Y-94990000D02*
X199200000Y-94980000D01*
X189000000Y-117200000D02*
X189000000Y-118700000D01*
D32*
X172800000Y-98741666D02*
X172800000Y-98200000D01*
X172800000Y-85850000D02*
X172800000Y-84900000D01*
X172800000Y-104641666D02*
X172800000Y-105100000D01*
D30*
X172225000Y-113075000D02*
X172200000Y-113100000D01*
X173283333Y-113075000D02*
X172225000Y-113075000D01*
X199200000Y-94980000D02*
X199200000Y-94200000D01*
X196920000Y-113100000D02*
X197900000Y-113100000D01*
D32*
X172800000Y-90850000D02*
X172800000Y-91700000D01*
D30*
X181093333Y-117175000D02*
X181093333Y-118693333D01*
D31*
X184920000Y-91180000D02*
X184930000Y-91190000D01*
X184920000Y-91180000D02*
X183375000Y-92725000D01*
X183375000Y-92725000D02*
X182137500Y-92725000D01*
X205000000Y-91190000D02*
X199200000Y-91190000D01*
X184930000Y-91190000D02*
X199200000Y-91190000D01*
X205000000Y-98810000D02*
X202180000Y-98810000D01*
X183275000Y-97275000D02*
X182137500Y-97275000D01*
X183500000Y-97500000D02*
X183275000Y-97275000D01*
X205000000Y-88650000D02*
X199450000Y-88650000D01*
X183500000Y-98800000D02*
X183500000Y-97500000D01*
X199450000Y-88650000D02*
X199400000Y-88700000D01*
D30*
X202100000Y-99910000D02*
X202100000Y-100900000D01*
X202100000Y-95280000D02*
X202100000Y-94400000D01*
X202380000Y-90000000D02*
X202100000Y-89720000D01*
X203200000Y-90000000D02*
X202380000Y-90000000D01*
D31*
X205000000Y-96270000D02*
X202130000Y-96270000D01*
X187862500Y-97275000D02*
X186525000Y-97275000D01*
X186500000Y-93375000D02*
X186475000Y-93400000D01*
X186700000Y-93375000D02*
X186675000Y-93400000D01*
X186875000Y-93375000D02*
X186700000Y-93375000D01*
X187862500Y-93375000D02*
X186700000Y-93375000D01*
X186875000Y-93375000D02*
X186500000Y-93375000D01*
X187862500Y-92725000D02*
X186325000Y-92725000D01*
X187862500Y-96625000D02*
X186325000Y-96625000D01*
D32*
X170660000Y-89573333D02*
X171100000Y-89133333D01*
X174600000Y-89200000D02*
X172800000Y-89200000D01*
X171100000Y-89133333D02*
X172733333Y-89133333D01*
X180075000Y-94675000D02*
X181000000Y-94675000D01*
X180075000Y-94675000D02*
X174600000Y-89200000D01*
X165000000Y-89573333D02*
X170660000Y-89573333D01*
D30*
X182137500Y-94675000D02*
X181000000Y-94675000D01*
D32*
X180600000Y-93300000D02*
X174800000Y-87500000D01*
X174800000Y-87500000D02*
X172800000Y-87500000D01*
D30*
X180975000Y-93375000D02*
X182137500Y-93375000D01*
D32*
X165000000Y-87033333D02*
X170650000Y-87033333D01*
X171100000Y-87483333D02*
X172783333Y-87483333D01*
D30*
X180900000Y-93300000D02*
X180975000Y-93375000D01*
D32*
X170650000Y-87033333D02*
X171100000Y-87483333D01*
X180900000Y-93300000D02*
X180600000Y-93300000D01*
D30*
X182137500Y-95325000D02*
X181000000Y-95325000D01*
D32*
X165000000Y-100426666D02*
X170410000Y-100426666D01*
X172800000Y-100800000D02*
X174600000Y-100800000D01*
X170410000Y-100426666D02*
X170800000Y-100816666D01*
X170800000Y-100816666D02*
X172783334Y-100816666D01*
X180075000Y-95325000D02*
X181000000Y-95325000D01*
X174600000Y-100800000D02*
X180075000Y-95325000D01*
X170800000Y-102466666D02*
X172766666Y-102466666D01*
X172800000Y-102500000D02*
X175000000Y-102500000D01*
X170300000Y-102966666D02*
X170800000Y-102466666D01*
D30*
X180875000Y-96625000D02*
X180800000Y-96700000D01*
X182137500Y-96625000D02*
X180875000Y-96625000D01*
D32*
X165000000Y-102966666D02*
X170300000Y-102966666D01*
X175000000Y-102500000D02*
X180800000Y-96700000D01*
D30*
X174220000Y-116000000D02*
X176550000Y-116000000D01*
X189000000Y-112980000D02*
X191880000Y-112980000D01*
X189006667Y-112200000D02*
X189006667Y-112400000D01*
D32*
X185600000Y-108600000D02*
X185600000Y-97600000D01*
D30*
X185600000Y-96425000D02*
X185600000Y-97600000D01*
D31*
X182137500Y-94025000D02*
X183200000Y-94025000D01*
D30*
X189006667Y-112400000D02*
X189006667Y-112855000D01*
D32*
X189006667Y-112006667D02*
X189006667Y-112400000D01*
D30*
X183200000Y-94025000D02*
X185600000Y-96425000D01*
D32*
X189006667Y-112006667D02*
X185600000Y-108600000D01*
D30*
X178000000Y-116000000D02*
X180968333Y-116000000D01*
X181093333Y-114075000D02*
X181093333Y-115875000D01*
X174303333Y-113075000D02*
X176543333Y-113075000D01*
X193525000Y-113100000D02*
X195900000Y-113100000D01*
D32*
X181093333Y-112400000D02*
X181093333Y-112006667D01*
X184500000Y-108600000D02*
X184500000Y-97600000D01*
X181093333Y-112006667D02*
X184500000Y-108600000D01*
D30*
X181093333Y-112400000D02*
X181093333Y-113055000D01*
D31*
X182137500Y-95975000D02*
X183200000Y-95975000D01*
D30*
X184500000Y-96800000D02*
X184500000Y-97600000D01*
X183200000Y-95975000D02*
X183675000Y-95975000D01*
X183675000Y-95975000D02*
X184500000Y-96800000D01*
X177993333Y-113075000D02*
X181073333Y-113075000D01*
X189000000Y-115900000D02*
X189000000Y-114000000D01*
X192075000Y-116100000D02*
X189200000Y-116100000D01*
X195900000Y-116100000D02*
X193525000Y-116100000D01*
X199200000Y-92210000D02*
X199200000Y-93180000D01*
M02*
